<svg xmlns="http://www.w3.org/2000/svg" xmlns:xlink="http://www.w3.org/1999/xlink" width="1920" zoomAndPan="magnify" viewBox="0 0 1440 809.999993" height="1080" preserveAspectRatio="xMidYMid meet" version="1.0"><defs><clipPath id="7c25fc977e"><path d="M 512.640625 243 L 877 243 L 877 567 L 512.640625 567 Z M 512.640625 243 " clip-rule="nonzero"/></clipPath><clipPath id="7ce7ed49b7"><path d="M 888 388 L 927.390625 388 L 927.390625 428 L 888 428 Z M 888 388 " clip-rule="nonzero"/></clipPath></defs><rect x="-144" width="1728" fill="#ffffff" y="-80.999999" height="971.999992" fill-opacity="1"/><rect x="-144" width="1728" fill="#282828" y="-80.999999" height="971.999992" fill-opacity="1"/><g clip-path="url(#7c25fc977e)"><path fill="#d43024" d="M 518.671875 506.148438 L 582.757812 562.46875 C 585.671875 565.058594 589.554688 567 593.761719 567 L 749.128906 567 C 758.191406 567 765.3125 559.554688 765.3125 550.492188 L 765.3125 498.703125 L 774.050781 498.703125 L 785.054688 509.710938 C 785.378906 510.03125 785.703125 510.355469 786.027344 510.679688 C 786.027344 510.679688 786.351562 511.003906 786.351562 511.003906 C 786.675781 511.003906 786.675781 511.328125 787 511.328125 C 787.320312 511.328125 787.320312 511.328125 787.644531 511.652344 C 787.96875 511.652344 787.96875 511.652344 788.292969 511.976562 C 788.617188 511.976562 789.265625 511.976562 789.585938 511.976562 L 804.800781 511.976562 C 804.476562 510.03125 804.152344 507.765625 804.152344 505.5 C 804.152344 503.234375 804.476562 500.96875 804.800781 499.027344 L 792.175781 499.027344 L 781.171875 488.023438 C 780.847656 487.699219 780.523438 487.375 780.199219 487.050781 C 780.199219 487.050781 779.878906 486.726562 779.878906 486.726562 C 779.554688 486.726562 779.554688 486.40625 779.230469 486.40625 C 778.90625 486.40625 778.90625 486.40625 778.582031 486.082031 C 778.257812 486.082031 778.257812 486.082031 777.933594 485.757812 C 777.613281 485.757812 776.964844 485.757812 776.640625 485.757812 L 765.3125 485.757812 L 765.3125 459.863281 L 835.550781 459.863281 C 835.226562 457.921875 834.902344 455.65625 834.902344 453.390625 C 834.902344 451.125 835.226562 448.859375 835.550781 446.917969 L 765.3125 446.917969 L 765.3125 414.546875 L 876.007812 414.546875 C 875.6875 412.605469 875.363281 410.339844 875.363281 408.074219 C 875.363281 405.808594 875.6875 403.542969 876.007812 401.601562 L 765.3125 401.601562 L 765.3125 372.46875 L 833.929688 372.46875 C 833.609375 370.527344 833.285156 368.261719 833.285156 365.996094 C 833.285156 363.730469 833.609375 361.464844 833.929688 359.523438 L 765.3125 359.523438 L 765.3125 330.394531 L 776.640625 330.394531 C 776.964844 330.394531 777.613281 330.394531 777.933594 330.394531 C 778.257812 330.394531 778.257812 330.394531 778.582031 330.070312 C 778.90625 330.070312 778.90625 330.070312 779.230469 329.746094 C 779.554688 329.746094 779.554688 329.421875 779.878906 329.421875 C 779.878906 329.421875 780.199219 329.421875 780.199219 329.097656 C 780.523438 328.773438 780.847656 328.449219 781.171875 328.125 L 792.175781 317.121094 L 804.800781 317.121094 C 804.476562 315.179688 804.152344 312.914062 804.152344 310.648438 C 804.152344 308.382812 804.476562 306.117188 804.800781 304.175781 L 789.585938 304.175781 C 789.265625 304.175781 788.617188 304.175781 788.292969 304.175781 C 787.96875 304.175781 787.96875 304.175781 787.644531 304.5 C 787.320312 304.5 787.320312 304.5 787 304.820312 C 786.675781 304.820312 786.675781 305.144531 786.351562 305.144531 C 786.351562 305.144531 786.027344 305.144531 786.027344 305.46875 C 785.703125 305.792969 785.378906 306.117188 785.054688 306.441406 L 774.050781 317.445312 L 765.3125 317.445312 L 765.3125 259.507812 C 765.3125 250.445312 757.867188 243 749.128906 243 L 529.027344 243 C 519.964844 243 512.84375 250.445312 512.84375 259.507812 L 512.84375 493.527344 C 512.84375 498.703125 515.109375 502.910156 518.671875 506.148438 Z M 543.269531 510.355469 L 573.371094 511.328125 C 574.992188 511.328125 576.609375 512.945312 576.609375 514.886719 L 577.257812 540.457031 Z M 525.792969 259.507812 C 525.792969 257.566406 527.410156 255.945312 529.027344 255.945312 L 749.128906 255.945312 C 751.070312 255.945312 752.363281 257.566406 752.363281 259.507812 L 752.363281 550.167969 C 752.363281 552.109375 750.746094 553.730469 749.128906 553.730469 L 593.761719 553.730469 C 592.144531 553.730469 590.527344 552.109375 590.527344 550.167969 L 589.878906 514.242188 C 589.554688 505.5 582.757812 498.378906 574.019531 498.058594 L 529.027344 497.085938 C 527.410156 497.085938 525.792969 495.46875 525.792969 493.527344 Z M 525.792969 259.507812 " fill-opacity="1" fill-rule="nonzero"/></g><path fill="#d43024" d="M 561.394531 349.8125 L 716.761719 349.8125 C 720.320312 349.8125 723.234375 346.898438 723.234375 343.339844 C 723.234375 339.777344 720.320312 336.867188 716.761719 336.867188 L 561.394531 336.867188 C 557.835938 336.867188 554.921875 339.777344 554.921875 343.339844 C 554.921875 346.898438 557.835938 349.8125 561.394531 349.8125 Z M 561.394531 349.8125 " fill-opacity="1" fill-rule="nonzero"/><path fill="#d43024" d="M 613.832031 313.238281 C 613.832031 312.914062 614.15625 312.265625 614.15625 311.621094 C 614.15625 310.972656 614.15625 310.324219 614.480469 309.675781 C 614.480469 309.03125 614.480469 308.382812 614.480469 307.734375 C 614.480469 307.089844 614.480469 306.765625 614.480469 306.441406 C 614.480469 305.46875 614.480469 304.5 614.480469 303.527344 C 614.480469 302.554688 614.15625 301.585938 614.15625 300.613281 L 593.441406 293.816406 L 614.15625 286.371094 C 614.480469 285.402344 614.480469 284.429688 614.480469 283.460938 C 614.480469 282.488281 614.480469 281.515625 614.480469 280.871094 C 614.480469 280.222656 614.480469 278.929688 614.480469 277.632812 C 614.480469 276.339844 614.15625 275.042969 614.15625 274.398438 L 580.816406 287.667969 C 580.167969 289.609375 580.167969 291.550781 580.167969 293.492188 C 580.167969 295.4375 580.492188 297.703125 580.816406 299.644531 Z M 613.832031 313.238281 " fill-opacity="1" fill-rule="nonzero"/><path fill="#d43024" d="M 627.75 322.300781 C 628.71875 322.300781 629.691406 322.300781 630.988281 322.300781 C 631.957031 322.300781 632.929688 321.976562 634.222656 321.976562 L 653.644531 265.011719 C 652.347656 264.6875 651.054688 264.6875 649.757812 264.363281 C 648.789062 264.363281 647.492188 264.363281 646.847656 264.363281 C 645.875 264.363281 644.90625 264.363281 643.609375 264.363281 C 642.640625 264.363281 641.667969 264.6875 640.371094 264.6875 L 620.953125 321.652344 C 622.246094 321.976562 623.542969 321.976562 624.835938 322.300781 C 625.808594 322.300781 626.777344 322.300781 627.75 322.300781 Z M 627.75 322.300781 " fill-opacity="1" fill-rule="nonzero"/><path fill="#d43024" d="M 659.46875 303.851562 C 659.46875 304.820312 659.46875 305.792969 659.46875 306.765625 C 659.46875 307.089844 659.46875 307.734375 659.46875 308.058594 C 659.46875 308.707031 659.46875 309.355469 659.46875 310 C 659.46875 310.648438 659.46875 311.296875 659.792969 311.941406 C 659.792969 312.589844 660.117188 313.238281 660.117188 313.5625 L 693.132812 299.96875 C 693.78125 297.703125 693.78125 295.757812 693.78125 293.816406 C 693.78125 291.875 693.457031 289.933594 693.132812 287.992188 L 660.117188 274.398438 C 659.792969 275.367188 659.792969 276.339844 659.792969 277.632812 C 659.792969 278.929688 659.792969 279.898438 659.792969 280.871094 C 659.792969 281.839844 659.792969 282.8125 659.792969 283.460938 C 659.792969 284.429688 660.117188 285.402344 660.117188 286.371094 L 680.832031 293.816406 L 660.117188 300.613281 C 659.46875 301.585938 659.46875 302.878906 659.46875 303.851562 Z M 659.46875 303.851562 " fill-opacity="1" fill-rule="nonzero"/><path fill="#d43024" d="M 836.519531 291.550781 C 825.839844 291.550781 817.101562 300.289062 817.101562 310.972656 C 817.101562 321.652344 825.839844 330.394531 836.519531 330.394531 C 847.203125 330.394531 855.941406 321.652344 855.941406 310.972656 C 855.941406 300.289062 847.203125 291.550781 836.519531 291.550781 Z M 836.519531 317.445312 C 832.960938 317.445312 830.046875 314.53125 830.046875 310.972656 C 830.046875 307.410156 832.960938 304.5 836.519531 304.5 C 840.082031 304.5 842.996094 307.410156 842.996094 310.972656 C 842.996094 314.53125 840.082031 317.445312 836.519531 317.445312 Z M 836.519531 317.445312 " fill-opacity="1" fill-rule="nonzero"/><path fill="#d43024" d="M 865.652344 385.417969 C 876.332031 385.417969 885.074219 376.679688 885.074219 365.996094 C 885.074219 355.316406 876.332031 346.578125 865.652344 346.578125 C 854.96875 346.578125 846.230469 355.316406 846.230469 365.996094 C 846.230469 376.679688 854.96875 385.417969 865.652344 385.417969 Z M 865.652344 359.523438 C 869.210938 359.523438 872.125 362.4375 872.125 365.996094 C 872.125 369.558594 869.210938 372.46875 865.652344 372.46875 C 862.089844 372.46875 859.179688 369.558594 859.179688 365.996094 C 859.179688 362.4375 862.089844 359.523438 865.652344 359.523438 Z M 865.652344 359.523438 " fill-opacity="1" fill-rule="nonzero"/><g clip-path="url(#7ce7ed49b7)"><path fill="#d43024" d="M 888.308594 408.074219 C 888.308594 418.757812 897.046875 427.496094 907.730469 427.496094 C 918.410156 427.496094 927.148438 418.757812 927.148438 408.074219 C 927.148438 397.394531 918.410156 388.65625 907.730469 388.65625 C 897.046875 388.65625 888.308594 397.394531 888.308594 408.074219 Z M 914.203125 408.074219 C 914.203125 411.636719 911.289062 414.546875 907.730469 414.546875 C 904.167969 414.546875 901.257812 411.636719 901.257812 408.074219 C 901.257812 404.515625 904.167969 401.601562 907.730469 401.601562 C 911.289062 401.601562 914.203125 404.515625 914.203125 408.074219 Z M 914.203125 408.074219 " fill-opacity="1" fill-rule="nonzero"/></g><path fill="#d43024" d="M 836.519531 485.757812 C 825.839844 485.757812 817.101562 494.496094 817.101562 505.179688 C 817.101562 515.859375 825.839844 524.597656 836.519531 524.597656 C 847.203125 524.597656 855.941406 515.859375 855.941406 505.179688 C 855.941406 494.496094 847.203125 485.757812 836.519531 485.757812 Z M 836.519531 511.652344 C 832.960938 511.652344 830.046875 508.738281 830.046875 505.179688 C 830.046875 501.617188 832.960938 498.703125 836.519531 498.703125 C 840.082031 498.703125 842.996094 501.617188 842.996094 505.179688 C 842.996094 508.738281 840.082031 511.652344 836.519531 511.652344 Z M 836.519531 511.652344 " fill-opacity="1" fill-rule="nonzero"/><path fill="#d43024" d="M 699.929688 421.023438 L 696.367188 421.023438 C 695.074219 416.492188 693.457031 412.28125 691.191406 408.398438 L 693.78125 405.808594 C 697.988281 401.601562 697.988281 395.128906 693.78125 391.242188 L 685.363281 382.828125 C 681.15625 378.621094 674.683594 378.621094 670.796875 382.828125 L 667.886719 385.417969 C 664 383.152344 659.792969 381.535156 655.261719 380.238281 L 655.261719 376.679688 C 655.261719 370.851562 650.730469 366.320312 644.90625 366.320312 L 633.253906 366.320312 C 627.425781 366.320312 622.894531 370.851562 622.894531 376.679688 L 622.894531 380.238281 C 618.363281 381.535156 614.15625 383.152344 610.269531 385.417969 L 607.683594 382.828125 C 603.472656 378.621094 597 378.621094 593.117188 382.828125 L 584.699219 391.242188 C 580.492188 395.453125 580.492188 401.925781 584.699219 405.808594 L 587.289062 408.398438 C 585.023438 412.28125 583.40625 416.492188 582.109375 421.023438 L 578.550781 421.023438 C 572.726562 421.023438 568.191406 425.554688 568.191406 431.378906 L 568.191406 443.03125 C 568.191406 448.859375 572.726562 453.390625 578.550781 453.390625 L 582.109375 453.390625 C 583.40625 457.921875 585.023438 462.128906 587.289062 466.011719 L 584.699219 468.601562 C 580.492188 472.808594 580.492188 479.285156 584.699219 483.167969 L 593.117188 491.582031 C 597.324219 495.792969 603.796875 495.792969 607.683594 491.582031 L 610.269531 488.992188 C 614.15625 491.257812 618.363281 492.878906 622.894531 494.171875 L 622.894531 497.734375 C 622.894531 503.558594 627.425781 508.089844 633.253906 508.089844 L 644.90625 508.089844 C 650.730469 508.089844 655.261719 503.558594 655.261719 497.734375 L 655.261719 494.171875 C 659.792969 492.878906 664 491.257812 667.886719 488.992188 L 670.476562 491.582031 C 674.683594 495.792969 681.15625 495.792969 685.039062 491.582031 L 693.457031 483.167969 C 697.664062 478.960938 697.664062 472.488281 693.457031 468.601562 L 690.867188 466.011719 C 693.132812 462.128906 694.75 457.921875 696.046875 453.390625 L 699.605469 453.390625 C 705.433594 453.390625 709.964844 448.859375 709.964844 443.03125 L 709.964844 431.378906 C 710.285156 425.554688 705.753906 421.023438 699.929688 421.023438 Z M 697.339844 440.441406 L 691.191406 440.441406 C 687.953125 440.441406 685.363281 442.707031 684.714844 445.621094 C 683.421875 452.09375 681.15625 457.921875 677.273438 463.101562 C 675.652344 465.6875 675.976562 469.25 677.917969 471.191406 L 682.449219 475.722656 L 677.917969 480.902344 L 673.386719 476.371094 C 671.121094 474.105469 667.5625 473.78125 665.296875 475.722656 C 660.117188 479.285156 653.96875 481.875 647.816406 483.167969 C 644.90625 483.816406 642.640625 486.40625 642.640625 489.640625 L 642.640625 495.46875 L 635.839844 495.46875 L 635.839844 489.316406 C 635.839844 486.082031 633.574219 483.492188 630.664062 482.84375 C 624.1875 481.550781 618.363281 479.285156 613.183594 475.398438 C 610.59375 473.78125 607.035156 474.105469 605.09375 476.046875 L 600.238281 480.902344 L 595.382812 476.046875 L 599.914062 471.515625 C 602.179688 469.25 602.503906 465.6875 600.5625 463.421875 C 597 458.246094 594.410156 452.09375 593.117188 445.945312 C 592.46875 443.03125 589.878906 440.765625 586.644531 440.765625 L 580.816406 440.765625 L 580.816406 433.96875 L 586.964844 433.96875 C 590.203125 433.96875 592.792969 431.703125 593.441406 428.789062 C 594.734375 422.316406 597 416.492188 600.882812 411.3125 C 602.503906 408.722656 602.179688 405.160156 600.238281 403.21875 L 595.382812 398.363281 L 600.238281 393.507812 L 604.769531 398.039062 C 607.035156 400.308594 610.59375 400.628906 612.859375 398.6875 C 618.039062 395.128906 624.1875 392.539062 630.339844 391.242188 C 633.253906 390.597656 635.519531 388.007812 635.519531 384.769531 L 635.519531 378.945312 L 642.316406 378.945312 L 642.316406 385.09375 C 642.316406 388.332031 644.582031 390.921875 647.492188 391.566406 C 653.96875 392.863281 659.792969 395.128906 664.972656 399.011719 C 667.5625 400.628906 671.121094 400.308594 673.0625 398.363281 L 677.597656 393.832031 L 682.449219 398.6875 L 677.917969 403.21875 C 675.652344 405.484375 675.328125 409.046875 677.273438 411.3125 C 680.832031 416.492188 683.421875 422.640625 684.714844 428.789062 C 685.363281 431.703125 687.953125 433.96875 691.191406 433.96875 L 697.339844 433.96875 Z M 697.339844 440.441406 " fill-opacity="1" fill-rule="nonzero"/><path fill="#d43024" d="M 639.078125 404.839844 C 621.277344 404.839844 606.710938 419.402344 606.710938 437.207031 C 606.710938 455.007812 621.277344 469.574219 639.078125 469.574219 C 656.878906 469.574219 671.445312 455.007812 671.445312 437.207031 C 671.445312 419.402344 656.878906 404.839844 639.078125 404.839844 Z M 639.078125 456.625 C 628.398438 456.625 619.65625 447.886719 619.65625 437.207031 C 619.65625 426.523438 628.398438 417.785156 639.078125 417.785156 C 649.757812 417.785156 658.5 426.523438 658.5 437.207031 C 658.5 447.886719 649.757812 456.625 639.078125 456.625 Z M 639.078125 456.625 " fill-opacity="1" fill-rule="nonzero"/><path fill="#d43024" d="M 886.691406 453.390625 C 886.691406 442.707031 877.953125 433.96875 867.269531 433.96875 C 856.589844 433.96875 847.847656 442.707031 847.847656 453.390625 C 847.847656 464.070312 856.589844 472.808594 867.269531 472.808594 C 877.953125 472.808594 886.691406 464.070312 886.691406 453.390625 Z M 860.796875 453.390625 C 860.796875 449.828125 863.710938 446.917969 867.269531 446.917969 C 870.832031 446.917969 873.742188 449.828125 873.742188 453.390625 C 873.742188 456.949219 870.832031 459.863281 867.269531 459.863281 C 863.710938 459.863281 860.796875 456.949219 860.796875 453.390625 Z M 860.796875 453.390625 " fill-opacity="1" fill-rule="nonzero"/></svg>