<svg xmlns="http://www.w3.org/2000/svg" xmlns:xlink="http://www.w3.org/1999/xlink" width="1920" zoomAndPan="magnify" viewBox="0 0 1440 809.999993" height="1080" preserveAspectRatio="xMidYMid meet" version="1.0"><defs><clipPath id="f63274c5c2"><path d="M 555.324219 243 L 884.574219 243 L 884.574219 567 L 555.324219 567 Z M 555.324219 243 " clip-rule="nonzero"/></clipPath></defs><rect x="-144" width="1728" fill="#ffffff" y="-80.999999" height="971.999992" fill-opacity="1"/><rect x="-144" width="1728" fill="#282828" y="-80.999999" height="971.999992" fill-opacity="1"/><path fill="#d43024" d="M 719.996094 247.730469 C 808.363281 247.730469 880 319.367188 880 407.734375 C 880 481.09375 830.628906 542.917969 763.304688 561.804688 L 748.167969 507.945312 L 733.382812 455.359375 C 754.195312 449.519531 769.457031 430.410156 769.457031 407.734375 C 769.457031 380.417969 747.3125 358.273438 719.996094 358.273438 C 692.679688 358.273438 670.535156 380.417969 670.535156 407.734375 C 670.535156 430.410156 685.796875 449.519531 706.609375 455.359375 L 691.824219 507.945312 L 676.6875 561.804688 C 609.359375 542.917969 559.992188 481.09375 559.992188 407.734375 C 559.992188 319.367188 631.628906 247.730469 719.996094 247.730469 Z M 719.996094 247.730469 " fill-opacity="1" fill-rule="evenodd"/><g clip-path="url(#f63274c5c2)"><path fill="#d43024" d="M 739.082031 458.394531 L 766.515625 555.984375 C 830.816406 535.824219 875.332031 475.53125 875.332031 407.734375 C 875.332031 322.085938 805.652344 252.394531 719.996094 252.394531 C 634.339844 252.394531 564.65625 322.085938 564.65625 407.734375 C 564.65625 475.53125 609.171875 535.824219 673.472656 555.984375 L 700.90625 458.394531 C 680.058594 450.535156 665.867188 430.328125 665.867188 407.734375 C 665.867188 377.890625 690.144531 353.605469 719.996094 353.605469 C 749.84375 353.605469 774.121094 377.890625 774.121094 407.734375 C 774.121094 430.328125 759.929688 450.535156 739.082031 458.394531 Z M 763.304688 566.472656 C 761.261719 566.472656 759.390625 565.125 758.808594 563.066406 L 728.886719 456.621094 C 728.554688 455.429688 728.710938 454.15625 729.316406 453.074219 C 729.921875 451.996094 730.929688 451.203125 732.121094 450.867188 C 751.355469 445.46875 764.789062 427.734375 764.789062 407.734375 C 764.789062 383.039062 744.699219 362.9375 719.996094 362.9375 C 695.292969 362.9375 675.199219 383.039062 675.199219 407.734375 C 675.199219 427.734375 688.636719 445.46875 707.871094 450.867188 C 709.0625 451.203125 710.066406 451.996094 710.675781 453.074219 C 711.28125 454.15625 711.4375 455.429688 711.101562 456.621094 L 681.179688 563.066406 C 680.480469 565.546875 677.90625 566.992188 675.425781 566.300781 C 641.527344 556.785156 610.972656 536.097656 589.390625 508.042969 C 567.101562 479.070312 555.324219 444.382812 555.324219 407.734375 C 555.324219 363.753906 572.449219 322.398438 603.550781 291.296875 C 634.660156 260.1875 676.007812 243.0625 719.996094 243.0625 C 763.980469 243.0625 805.332031 260.191406 836.4375 291.296875 C 867.542969 322.398438 884.667969 363.753906 884.667969 407.734375 C 884.667969 444.382812 872.886719 479.070312 850.601562 508.042969 C 829.015625 536.097656 798.464844 556.785156 764.566406 566.300781 C 764.144531 566.410156 763.71875 566.472656 763.304688 566.472656 Z M 763.304688 566.472656 " fill-opacity="1" fill-rule="evenodd"/></g></svg>