<svg xmlns="http://www.w3.org/2000/svg" xmlns:xlink="http://www.w3.org/1999/xlink" width="1920" zoomAndPan="magnify" viewBox="0 0 1440 809.999993" height="1080" preserveAspectRatio="xMidYMid meet" version="1.0"><rect x="-144" width="1728" fill="#ffffff" y="-80.999999" height="971.999992" fill-opacity="1"/><rect x="-144" width="1728" fill="#282828" y="-80.999999" height="971.999992" fill-opacity="1"/><path fill="#d43024" d="M 855.382812 347.960938 L 834.332031 326.910156 C 832.40625 324.984375 832.40625 321.871094 834.332031 319.941406 C 842.378906 312.226562 842.390625 298.339844 834.332031 290.691406 C 826.660156 282.601562 812.761719 282.648438 805.078125 290.691406 C 803.25 292.519531 799.941406 292.519531 798.113281 290.691406 C 798.113281 290.691406 777.0625 269.640625 777.0625 269.640625 C 773.207031 265.738281 766.535156 265.785156 762.683594 269.640625 L 741.632812 290.640625 C 739.707031 292.566406 736.59375 292.566406 734.664062 290.640625 C 726.5625 282.585938 713.46875 282.585938 705.363281 290.640625 C 697.308594 298.746094 697.308594 311.839844 705.363281 319.941406 C 707.375 321.941406 707.257812 325.214844 705.164062 327.109375 C 705.164062 327.109375 684.363281 347.960938 684.363281 347.960938 C 680.367188 351.703125 680.390625 358.5625 684.363281 362.339844 C 684.363281 362.339844 702.152344 380.128906 702.152344 380.128906 C 714.109375 371.578125 730.910156 372.667969 741.632812 383.339844 C 752.355469 394.113281 753.441406 410.914062 744.84375 422.871094 L 762.683594 440.660156 C 766.636719 444.660156 773.109375 444.660156 777.0625 440.660156 L 794.898438 422.871094 C 786.144531 411.195312 787.554688 393.511719 798.113281 383.339844 C 808.835938 372.667969 825.636719 371.578125 837.542969 380.128906 L 855.382812 362.339844 C 859.300781 358.546875 859.328125 351.746094 855.382812 347.960938 Z M 855.382812 347.960938 " fill-opacity="1" fill-rule="nonzero"/><path fill="#d43024" d="M 734.617188 426.675781 C 732.648438 424.738281 732.726562 421.515625 734.664062 419.660156 C 753.351562 399.652344 725.378906 371.648438 705.363281 390.355469 C 703.4375 392.285156 700.324219 392.285156 698.347656 390.355469 L 677.347656 369.304688 C 673.542969 365.5 666.773438 365.5 662.96875 369.304688 L 645.128906 387.144531 C 665.046875 415.472656 630.496094 449.472656 602.484375 429.835938 C 602.484375 429.835938 584.648438 447.675781 584.648438 447.675781 C 580.65625 451.472656 580.671875 458.253906 584.648438 462.054688 C 584.648438 462.054688 586.722656 464.179688 586.722656 464.179688 C 586.773438 464.230469 586.773438 464.277344 586.820312 464.277344 C 586.78125 464.3125 602.433594 479.785156 602.4375 479.84375 C 614.105469 471.175781 631.804688 472.507812 641.917969 483.105469 C 652.496094 493.230469 653.859375 510.890625 645.179688 522.535156 C 645.179688 522.535156 662.96875 540.324219 662.96875 540.324219 C 666.820312 544.230469 673.492188 544.230469 677.347656 540.375 L 698.347656 519.324219 C 700.324219 517.398438 703.4375 517.398438 705.363281 519.324219 C 713.417969 527.429688 726.609375 527.429688 734.664062 519.324219 C 742.71875 511.269531 742.71875 498.175781 734.664062 490.070312 C 732.738281 488.144531 732.738281 485.03125 734.664062 483.105469 L 755.667969 462.105469 C 757.542969 460.175781 758.628906 457.609375 758.628906 454.890625 C 758.628906 452.171875 757.542969 449.652344 755.667969 447.726562 Z M 734.617188 426.675781 " fill-opacity="1" fill-rule="nonzero"/></svg>