<svg xmlns="http://www.w3.org/2000/svg" xmlns:xlink="http://www.w3.org/1999/xlink" width="1920" zoomAndPan="magnify" viewBox="0 0 1440 809.999993" height="1080" preserveAspectRatio="xMidYMid meet" version="1.0"><defs><clipPath id="beb2bc6ff9"><path d="M 650 265.671875 L 790 265.671875 L 790 481 L 650 481 Z M 650 265.671875 " clip-rule="nonzero"/></clipPath><clipPath id="3f8086012b"><path d="M 580.671875 438 L 859.671875 438 L 859.671875 544.671875 L 580.671875 544.671875 Z M 580.671875 438 " clip-rule="nonzero"/></clipPath></defs><rect x="-144" width="1728" fill="#ffffff" y="-80.999999" height="971.999992" fill-opacity="1"/><rect x="-144" width="1728" fill="#282828" y="-80.999999" height="971.999992" fill-opacity="1"/><g clip-path="url(#beb2bc6ff9)"><path fill="#d43024" d="M 732.269531 438.566406 L 732.269531 277.945312 C 732.269531 274.695312 731.007812 271.574219 728.6875 269.253906 C 726.363281 266.996094 723.246094 265.671875 719.996094 265.671875 C 716.742188 265.671875 713.625 266.996094 711.304688 269.253906 C 708.980469 271.574219 707.722656 274.695312 707.722656 277.945312 L 707.722656 438.566406 C 707.722656 438.566406 684.300781 415.144531 671.230469 402.074219 C 668.910156 399.753906 665.792969 398.492188 662.539062 398.492188 C 659.289062 398.492188 656.171875 399.753906 653.847656 402.074219 C 649.074219 406.851562 649.074219 414.613281 653.847656 419.390625 L 711.769531 477.3125 C 713.957031 479.5 716.875 480.695312 719.996094 480.695312 C 723.113281 480.695312 726.03125 479.5 728.222656 477.3125 L 786.140625 419.390625 C 790.917969 414.613281 790.917969 406.851562 786.140625 402.074219 C 783.820312 399.753906 780.699219 398.492188 777.449219 398.492188 C 774.199219 398.492188 771.082031 399.753906 768.757812 402.074219 C 755.621094 415.144531 732.269531 438.566406 732.269531 438.566406 Z M 732.269531 438.566406 " fill-opacity="1" fill-rule="evenodd"/></g><g clip-path="url(#3f8086012b)"><path fill="#d43024" d="M 580.671875 521.097656 C 580.671875 527.269531 583.125 533.171875 587.503906 537.484375 C 591.882812 541.863281 597.789062 544.320312 603.890625 544.320312 L 836.097656 544.320312 C 842.269531 544.320312 848.171875 541.863281 852.484375 537.484375 C 856.863281 533.105469 859.320312 527.203125 859.320312 521.097656 L 859.320312 450.839844 C 859.320312 444.070312 853.8125 438.566406 847.046875 438.566406 C 843.792969 438.566406 840.675781 439.890625 838.355469 442.148438 C 836.03125 444.46875 834.773438 447.589844 834.773438 450.839844 L 834.773438 508.226562 C 834.773438 514.664062 829.597656 519.839844 823.160156 519.839844 L 616.828125 519.839844 C 610.394531 519.839844 605.21875 514.664062 605.21875 508.226562 L 605.21875 450.839844 C 605.21875 447.589844 603.890625 444.46875 601.636719 442.148438 C 599.3125 439.824219 596.195312 438.566406 592.945312 438.566406 C 586.175781 438.566406 580.671875 444.070312 580.671875 450.839844 Z M 580.671875 521.097656 " fill-opacity="1" fill-rule="evenodd"/></g></svg>