<svg xmlns="http://www.w3.org/2000/svg" xmlns:xlink="http://www.w3.org/1999/xlink" width="1920" zoomAndPan="magnify" viewBox="0 0 1440 809.999993" height="1080" preserveAspectRatio="xMidYMid meet" version="1.0"><defs><clipPath id="7031d5e2ce"><path d="M 524.523438 243 L 915.273438 243 L 915.273438 567 L 524.523438 567 Z M 524.523438 243 " clip-rule="nonzero"/></clipPath></defs><rect x="-144" width="1728" fill="#ffffff" y="-80.999999" height="971.999992" fill-opacity="1"/><rect x="-144" width="1728" fill="#282828" y="-80.999999" height="971.999992" fill-opacity="1"/><path fill="#d43024" d="M 784.242188 346.859375 C 784.242188 343.503906 781.496094 340.757812 778.136719 340.757812 L 662.164062 340.757812 C 658.808594 340.757812 656.0625 343.503906 656.0625 346.859375 C 656.0625 350.21875 658.808594 352.964844 662.164062 352.964844 L 778.136719 352.964844 C 781.496094 352.964844 784.242188 350.21875 784.242188 346.859375 Z M 784.242188 346.859375 " fill-opacity="1" fill-rule="nonzero"/><path fill="#d43024" d="M 851.382812 511.664062 C 854.742188 511.664062 857.488281 508.917969 857.488281 505.558594 L 857.488281 370.667969 L 845.28125 388.0625 L 845.28125 505.558594 C 845.28125 508.917969 848.027344 511.664062 851.382812 511.664062 Z M 851.382812 511.664062 " fill-opacity="1" fill-rule="nonzero"/><path fill="#d43024" d="M 808.65625 323.363281 L 808.65625 322.445312 C 808.65625 319.089844 805.910156 316.34375 802.554688 316.34375 L 637.75 316.34375 C 634.394531 316.34375 631.648438 319.089844 631.648438 322.445312 L 631.648438 468.9375 C 631.648438 470.464844 632.257812 471.988281 633.476562 473.210938 L 663.996094 503.730469 C 665.21875 504.949219 666.742188 505.558594 668.269531 505.558594 L 802.554688 505.558594 C 805.910156 505.558594 808.65625 502.8125 808.65625 499.457031 L 808.65625 427.738281 L 796.449219 439.332031 L 796.449219 493.351562 L 674.375 493.351562 L 674.375 478.09375 C 674.375 469.546875 667.660156 462.832031 659.113281 462.832031 L 643.855469 462.832031 L 643.855469 328.550781 L 796.449219 328.550781 L 796.449219 341.0625 Z M 659.113281 475.042969 C 660.945312 475.042969 662.164062 476.261719 662.164062 478.09375 L 662.164062 484.808594 L 652.398438 475.042969 Z M 659.113281 475.042969 " fill-opacity="1" fill-rule="nonzero"/><path fill="#d43024" d="M 780.886719 367.917969 C 780.886719 367.308594 780.886719 366.394531 781.191406 365.78125 C 780.273438 365.171875 779.359375 364.867188 778.136719 364.867188 L 662.164062 364.867188 C 658.808594 364.867188 656.0625 367.613281 656.0625 370.972656 C 656.0625 374.328125 658.808594 377.074219 662.164062 377.074219 L 775.695312 377.074219 C 777.222656 374.328125 779.054688 371.277344 780.886719 367.917969 Z M 780.886719 367.917969 " fill-opacity="1" fill-rule="nonzero"/><path fill="#d43024" d="M 767.457031 393.554688 C 768.066406 392.335938 768.675781 390.808594 769.289062 389.585938 L 662.164062 389.585938 C 658.808594 389.585938 656.0625 392.335938 656.0625 395.691406 C 656.0625 399.046875 658.808594 401.796875 662.164062 401.796875 L 764.097656 401.796875 Z M 767.457031 393.554688 " fill-opacity="1" fill-rule="nonzero"/><path fill="#d43024" d="M 758.605469 414.003906 L 662.164062 414.003906 C 658.808594 414.003906 656.0625 416.75 656.0625 420.105469 C 656.0625 423.464844 658.808594 426.210938 662.164062 426.210938 L 753.113281 426.210938 Z M 758.605469 414.003906 " fill-opacity="1" fill-rule="nonzero"/><path fill="#d43024" d="M 662.164062 438.417969 C 658.808594 438.417969 656.0625 441.164062 656.0625 444.523438 C 656.0625 447.878906 658.808594 450.625 662.164062 450.625 L 749.449219 450.625 C 747.621094 446.964844 747.3125 442.691406 748.230469 438.417969 Z M 662.164062 438.417969 " fill-opacity="1" fill-rule="nonzero"/><path fill="#d43024" d="M 884.953125 273.003906 C 880.378906 269.648438 874.578125 268.425781 869.085938 269.34375 C 863.589844 270.257812 858.707031 273.308594 855.351562 278.191406 L 790.652344 370.667969 C 789.429688 372.496094 789.125 374.632812 790.039062 376.464844 C 785.769531 383.789062 782.105469 391.113281 778.75 398.4375 L 760.4375 440.25 C 759.214844 442.996094 760.132812 446.046875 762.574219 447.574219 L 762.878906 447.878906 C 763.792969 448.488281 765.320312 449.101562 766.542969 449.101562 C 768.066406 449.101562 769.59375 448.488281 770.8125 447.269531 L 803.773438 415.527344 C 809.574219 409.730469 815.371094 403.933594 820.558594 397.523438 C 820.558594 397.523438 820.863281 397.523438 820.863281 397.523438 C 821.171875 397.523438 821.476562 397.523438 821.78125 397.523438 C 823.304688 397.21875 824.832031 396.300781 825.746094 395.082031 L 890.449219 302.609375 C 897.164062 292.84375 894.722656 279.71875 884.953125 273.003906 Z M 794.921875 406.984375 L 783.632812 417.96875 L 790.039062 403.625 C 792.789062 397.21875 796.144531 390.808594 799.808594 384.398438 L 809.878906 391.417969 C 804.996094 396.914062 800.113281 402.101562 794.921875 406.984375 Z M 819.035156 383.179688 L 804.078125 372.800781 L 844.667969 315.121094 L 859.625 325.496094 Z M 880.378906 295.589844 L 866.644531 315.425781 L 851.6875 305.050781 L 865.421875 285.210938 C 866.949219 283.078125 868.78125 281.855469 871.222656 281.550781 C 873.664062 281.246094 876.105469 281.550781 877.9375 283.078125 C 882.207031 285.824219 883.125 291.621094 880.378906 295.589844 Z M 880.378906 295.589844 " fill-opacity="1" fill-rule="nonzero"/><g clip-path="url(#7031d5e2ce)"><path fill="#d43024" d="M 678.953125 261.714844 C 677.425781 261.714844 675.898438 261.101562 674.679688 259.882812 L 662.472656 247.980469 C 659.113281 244.925781 654.535156 243.097656 649.957031 243.097656 L 595.023438 243.097656 C 588.308594 243.097656 582.816406 248.589844 582.816406 255.304688 L 582.816406 310.238281 L 573.660156 310.238281 C 563.589844 310.238281 555.347656 318.476562 555.347656 328.550781 L 555.347656 523.871094 L 530.933594 523.871094 C 528.796875 523.871094 526.964844 524.789062 525.746094 526.617188 C 524.523438 528.449219 524.523438 530.28125 525.136719 532.417969 C 533.375 553.171875 553.519531 566.902344 575.796875 566.902344 L 864.203125 566.902344 C 886.785156 566.902344 906.625 553.476562 914.863281 532.417969 C 915.472656 530.585938 915.472656 528.449219 914.253906 526.617188 C 913.03125 524.789062 911.203125 523.871094 909.066406 523.871094 L 884.648438 523.871094 L 884.648438 331.601562 L 872.441406 348.996094 L 872.441406 523.871094 L 567.558594 523.871094 L 567.558594 328.550781 C 567.558594 325.191406 570.304688 322.445312 573.660156 322.445312 L 582.816406 322.445312 L 582.816406 505.558594 C 582.816406 508.917969 585.5625 511.664062 588.921875 511.664062 C 592.277344 511.664062 595.023438 508.917969 595.023438 505.558594 L 595.023438 304.132812 L 822.085938 304.132812 L 830.632812 291.925781 L 595.023438 291.925781 L 595.023438 255.304688 L 649.957031 255.304688 C 651.484375 255.304688 653.011719 255.914062 654.230469 257.136719 L 666.4375 269.039062 C 669.796875 272.394531 674.375 274.226562 679.257812 274.226562 L 843.753906 274.226562 L 845.585938 271.480469 C 847.417969 268.730469 849.859375 266.289062 852.605469 264.15625 C 850.773438 262.933594 848.332031 262.019531 845.585938 262.019531 L 678.953125 262.019531 Z M 878.851562 536.078125 L 899.300781 536.078125 C 891.363281 547.371094 878.546875 554.390625 864.507812 554.390625 L 576.101562 554.390625 C 561.757812 554.390625 548.941406 547.371094 541.308594 536.078125 Z M 878.851562 536.078125 " fill-opacity="1" fill-rule="nonzero"/></g><path fill="#d43024" d="M 619.4375 273.617188 C 619.4375 274.015625 619.398438 274.414062 619.320312 274.804688 C 619.242188 275.199219 619.128906 275.582031 618.972656 275.953125 C 618.820312 276.320312 618.632812 276.671875 618.410156 277.007812 C 618.1875 277.339844 617.933594 277.648438 617.652344 277.929688 C 617.367188 278.214844 617.058594 278.46875 616.726562 278.691406 C 616.394531 278.914062 616.042969 279.101562 615.671875 279.253906 C 615.300781 279.40625 614.917969 279.523438 614.527344 279.601562 C 614.132812 279.679688 613.734375 279.71875 613.335938 279.71875 C 612.933594 279.71875 612.539062 279.679688 612.144531 279.601562 C 611.75 279.523438 611.371094 279.40625 611 279.253906 C 610.628906 279.101562 610.277344 278.914062 609.945312 278.691406 C 609.609375 278.46875 609.300781 278.214844 609.019531 277.929688 C 608.734375 277.648438 608.484375 277.339844 608.261719 277.007812 C 608.039062 276.671875 607.847656 276.320312 607.695312 275.953125 C 607.542969 275.582031 607.425781 275.199219 607.347656 274.804688 C 607.269531 274.414062 607.230469 274.015625 607.230469 273.617188 C 607.230469 273.214844 607.269531 272.816406 607.347656 272.425781 C 607.425781 272.03125 607.542969 271.648438 607.695312 271.28125 C 607.847656 270.910156 608.039062 270.558594 608.261719 270.222656 C 608.484375 269.890625 608.734375 269.582031 609.019531 269.300781 C 609.300781 269.015625 609.609375 268.761719 609.945312 268.539062 C 610.277344 268.316406 610.628906 268.128906 611 267.976562 C 611.371094 267.824219 611.75 267.707031 612.144531 267.628906 C 612.539062 267.550781 612.933594 267.511719 613.335938 267.511719 C 613.734375 267.511719 614.132812 267.550781 614.527344 267.628906 C 614.917969 267.707031 615.300781 267.824219 615.671875 267.976562 C 616.042969 268.128906 616.394531 268.316406 616.726562 268.539062 C 617.058594 268.761719 617.367188 269.015625 617.652344 269.300781 C 617.933594 269.582031 618.1875 269.890625 618.410156 270.222656 C 618.632812 270.558594 618.820312 270.910156 618.972656 271.28125 C 619.128906 271.648438 619.242188 272.03125 619.320312 272.425781 C 619.398438 272.816406 619.4375 273.214844 619.4375 273.617188 Z M 619.4375 273.617188 " fill-opacity="1" fill-rule="nonzero"/><path fill="#d43024" d="M 643.855469 273.617188 C 643.855469 274.015625 643.816406 274.414062 643.738281 274.804688 C 643.660156 275.199219 643.542969 275.582031 643.390625 275.953125 C 643.238281 276.320312 643.046875 276.671875 642.824219 277.007812 C 642.601562 277.339844 642.351562 277.648438 642.066406 277.929688 C 641.785156 278.214844 641.476562 278.46875 641.140625 278.691406 C 640.808594 278.914062 640.457031 279.101562 640.085938 279.253906 C 639.714844 279.40625 639.335938 279.523438 638.941406 279.601562 C 638.546875 279.679688 638.152344 279.71875 637.75 279.71875 C 637.351562 279.71875 636.953125 279.679688 636.558594 279.601562 C 636.167969 279.523438 635.785156 279.40625 635.414062 279.253906 C 635.042969 279.101562 634.691406 278.914062 634.359375 278.691406 C 634.027344 278.46875 633.71875 278.214844 633.433594 277.929688 C 633.152344 277.648438 632.898438 277.339844 632.675781 277.007812 C 632.453125 276.671875 632.265625 276.320312 632.113281 275.953125 C 631.957031 275.582031 631.84375 275.199219 631.765625 274.804688 C 631.6875 274.414062 631.648438 274.015625 631.648438 273.617188 C 631.648438 273.214844 631.6875 272.816406 631.765625 272.425781 C 631.84375 272.03125 631.957031 271.648438 632.113281 271.28125 C 632.265625 270.910156 632.453125 270.558594 632.675781 270.222656 C 632.898438 269.890625 633.152344 269.582031 633.433594 269.300781 C 633.71875 269.015625 634.027344 268.761719 634.359375 268.539062 C 634.691406 268.316406 635.042969 268.128906 635.414062 267.976562 C 635.785156 267.824219 636.167969 267.707031 636.558594 267.628906 C 636.953125 267.550781 637.351562 267.511719 637.75 267.511719 C 638.152344 267.511719 638.546875 267.550781 638.941406 267.628906 C 639.335938 267.707031 639.714844 267.824219 640.085938 267.976562 C 640.457031 268.128906 640.808594 268.316406 641.140625 268.539062 C 641.476562 268.761719 641.785156 269.015625 642.066406 269.300781 C 642.351562 269.582031 642.601562 269.890625 642.824219 270.222656 C 643.046875 270.558594 643.238281 270.910156 643.390625 271.28125 C 643.542969 271.648438 643.660156 272.03125 643.738281 272.425781 C 643.816406 272.816406 643.855469 273.214844 643.855469 273.617188 Z M 643.855469 273.617188 " fill-opacity="1" fill-rule="nonzero"/></svg>